# xmcd
#
# Track frame offsets:
#	150
#	42609
#	70108
#	91350
#	137689
#	177561
#	207300
#	239568
#	250676
#
# Disc length: 3807 seconds
#
# Revision: 2
# Processed by: cddbd v1.5.2PL0 Copyright (c) Steve Scherf et al.
# Submitted via: audiograbber 1.83.01
#
DISCID=840edd09
DTITLE=Matthias Soucek - Ludwig van Beethoven - Piano Sonatas
DYEAR=2008
DGENRE=Classical
TTITLE0=Sonata No 8 in C minor Op 13 Pathétique, Grave - Allegro molto e con br
TTITLE0=io
TTITLE1=Sonata No 8 in C minor Op 13 Pathétique, Adagio cantabile
TTITLE2=Sonata No 8 in C minor Op 13 Pathétique, Rondo: Allegro
TTITLE3=Sonata No 17 in D minor Op 31 No 2 The Tempest, Largo - Allegro
TTITLE4=Sonata No 17 in D minor Op 31 No 2 The Tempest, Adagio
TTITLE5=Sonata No 17 in D minor Op 31 No 2 The Tempest, Allegretto
TTITLE6=Sonata No 14 in C sharp minor Op 27 No 2 Moonlight, Adagio sostenuto
TTITLE7=Sonata No 14 in C sharp minor Op 27 No 2 Moonlight, Allegretto
TTITLE8=Sonata No 14 in C sharp minor Op 27 No 2 Moonlight, Presto agitato
EXTD=Matthias Soucek - Piano\nwww.matthiassoucek.com\nRecorded April/May 2007,
EXTD=\nat Schloss Eckartsau, Lower Austria\n\nProducer: Richard Winter\nRecordi
EXTD=ng Producer, Engineer and Mastering: Martin Laumann, Hanna Saukel\nPiano: Bö
EXTD=sendorfer Imperial\nPiano Maintenance: Karl Brandl\n\nGrammola 98835\nSter
EXTD=eo DDD\nwww.grammola.at
EXTT0=
EXTT1=
EXTT2=
EXTT3=
EXTT4=
EXTT5=
EXTT6=
EXTT7=
EXTT8=
PLAYORDER=
